<svg xmlns="http://www.w3.org/2000/svg" viewBox="0 0 500 500">
  <circle cx="250" cy="250" r="250" fill="#e9d5e9"/>
  <text x="250" y="200" font-family="'Playfair Display', serif" font-size="48" font-weight="900" fill="white" text-anchor="middle">Coach</text>
  <text x="250" y="260" font-family="'Playfair Display', serif" font-size="60" font-weight="900" fill="white" text-anchor="middle">Sérénité</text>
  <g fill="none" stroke="white" stroke-width="4">
    <path d="M150,320 C150,290 180,290 180,320 L180,330 C180,340 170,350 160,350 C150,350 140,340 140,330 L140,310 C140,290 160,270 180,270" />
    <path d="M250,270 C230,270 220,290 220,310 L220,330 C220,340 230,350 240,350 C250,350 260,340 260,330 L260,310 C260,290 280,270 300,270 C320,270 340,290 340,310 L340,330 C340,340 330,350 320,350 C310,350 300,340 300,330 L300,310 C300,290 290,270 270,270" />
    <path d="M380,320 C380,290 350,290 350,320 L350,330 C350,340 360,350 370,350 C380,350 390,340 390,330 L390,310 C390,290 370,270 350,270" />
  </g>
  <text x="420" y="180" font-family="'Poppins', sans-serif" font-size="24" font-weight="300" fill="white" text-anchor="middle">Alison</text>
</svg>